<?xml version="1.0" encoding="utf-8"?>
<!-- Generator: Adobe Illustrator 17.1.0, SVG Export Plug-In . SVG Version: 6.00 Build 0)  -->
<!DOCTYPE svg PUBLIC "-//W3C//DTD SVG 1.1//EN" "http://www.w3.org/Graphics/SVG/1.1/DTD/svg11.dtd">
<svg version="1.1" id="Layer_1" xmlns="http://www.w3.org/2000/svg" xmlns:xlink="http://www.w3.org/1999/xlink" x="0px" y="0px"
	 viewBox="76.5 166.5 459 459" enable-background="new 76.5 166.5 459 459" xml:space="preserve">
<path fill="#999999" d="M368.3,287.8c0,0,3.9,40.4-21.9,62.3c-10.4-6.6-23.4-10.3-38.8-10.3c-14.2,0-28.2,4.1-40.3,11.6
	c-27.6-21.6-23.4-63.6-23.4-63.6c-30.6,59.6,1.6,83,2.3,83.6c-8.5,12.2-13.7,27.6-13.7,45.7c0,48.4,35.5,77,79.7,77
	c22.6,0,41.8-7.5,57.1-17.1L358.7,458c-13.3,7.8-26.8,12.7-42.7,12.7c-29.5,0-51.2-17.1-53-46h110.7c0.6-3.6,1.6-9.3,1.6-15.3
	c0-14.5-3.1-27.4-9.1-38C369.1,369.1,397.7,345.2,368.3,287.8L368.3,287.8z M262.7,404.1c3.9-26.2,23.4-40.9,45.4-40.9
	c25.2,0,39.4,14.7,39.4,40.9H262.7L262.7,404.1z M306,625.5C179.4,625.5,76.5,522.6,76.5,396S179.4,166.5,306,166.5
	S535.5,269.4,535.5,396S432.6,625.5,306,625.5z M306,196.3c-110.2,0-199.7,89.6-199.7,199.7c0,110.2,89.6,199.7,199.7,199.7
	c110.2,0,199.7-89.6,199.7-199.7C505.7,285.8,416.2,196.3,306,196.3z"/>
</svg>
